<svg viewBox="0 0 100 39" fill="#0057b7" xmlns="http://www.w3.org/2000/svg">
<path d="M0 0H16.0418C19.2049 0 21.7355 0.499418 23.7237 1.45285C25.712 2.40629 27.2936 3.76834 28.5589 5.5844C29.8241 7.40047 30.7731 9.44354 31.3153 11.8498C31.8576 14.2561 32.1739 16.7532 32.1739 19.3865C32.1739 23.5634 31.7672 26.787 30.9086 29.1024C30.0501 31.4179 28.8752 33.3248 27.384 34.8684C25.8928 36.4121 24.266 37.4563 22.5037 37.9558C20.1539 38.6822 17.9849 39 16.087 39H0V0ZM10.8 8.85332V30.1467H13.466C15.7255 30.1467 17.307 29.8743 18.3012 29.3295C19.2953 28.7846 20.0183 27.7858 20.5606 26.4237C21.1028 25.0163 21.374 22.7916 21.374 19.6589C21.374 15.5274 20.7865 12.7125 19.5664 11.1688C18.3464 9.62514 16.3581 8.89872 13.5564 8.89872H10.8451L10.8 8.85332Z" />
<path d="M35.6522 0H60.3214V7.95455H44.5605V15.4375H54.1541V23.5625H44.5605V31.0455H60.8696V39H35.6522V0Z" />
<path d="M89.1162 19.2503L99.9104 0H88.2205L82.2635 11.986L76.1274 0H64.3478L75.2316 19.0687L64.4374 39H76.1274L82.0843 27.014L88.2205 39H100L89.1162 19.2503Z" />
</svg>